# xmcd
#
# Track frame offsets: 
#        150
#        16113
#        30860
#        42843
#        60793
#        85430
#        96993
#        125455
#        163430
#        177550
#        198503
#        212038
#        231348
#        247050
#        263348
#        277000
#        298698
#
# Disc length: 4160 seconds
#
# Revision: 0
# Processed by: cddbd v1.5.2PL0 Copyright (c) Steve Scherf et al.
# Submitted via: ExactAudioCopy v0.95b4
#
DISCID=f2103e11
DTITLE=Taj Mahal - The Best Of
DYEAR=1900
DGENRE=Blues
TTITLE0=Statesboro Blues
TTITLE1=Leaving Trunk
TTITLE2=Corinna
TTITLE3=Going Up To The Country, Paint My Mailbox Blue
TTITLE4=She Caught The Katy And Left Me A Mule To Ride
TTITLE5=Take A Giant Step
TTITLE6=Six Days On The Road
TTITLE7=Farther On Down The Road
TTITLE8=Fishing Blues
TTITLE9=Ain't Gwine To Whistle Dixie (Any Mo')
TTITLE10=You're Going To Need Somebody On Your Bond
TTITLE11=Cakewalk Into Town
TTITLE12=Oh Susanna
TTITLE13=Frankie And Albert
TTITLE14=Chevrolet
TTITLE15=Johnny Too Bad
TTITLE16=Sweet Mama Janisse
EXTD=
EXTT0=
EXTT1=
EXTT2=
EXTT3=
EXTT4=
EXTT5=
EXTT6=
EXTT7=
EXTT8=
EXTT9=
EXTT10=
EXTT11=
EXTT12=
EXTT13=
EXTT14=
EXTT15=
EXTT16=
PLAYORDER=
